<svg width="48" height="48" viewBox="0 0 48 48" fill="none" xmlns="http://www.w3.org/2000/svg">
<g id="Group">
<path id="Vector" d="M24 0C10.7452 0 0 10.7452 0 24C0 37.2548 10.7452 48 24 48C37.2548 48 48 37.2548 48 24C48 10.7452 37.2548 0 24 0Z" fill="#111C58"/>
<g id="Group_2">
<path id="Vector_2" d="M16.5506 33.0791C17.4623 33.0791 18.2019 32.3394 18.2019 31.4277C18.2019 30.516 17.4623 29.7763 16.5506 29.7763C15.6389 29.7763 14.8992 30.516 14.8992 31.4277C14.8992 32.3394 15.6389 33.0791 16.5506 33.0791Z" fill="#1494CB"/>
<path id="Vector_3" d="M23.8853 30.9629C27.7075 30.9629 30.8142 27.8528 30.8142 24.034C30.8142 20.2152 27.7041 17.1051 23.8853 17.1051C20.0665 17.1051 16.9564 20.2152 16.9564 24.034C16.9564 27.8528 20.0665 30.9629 23.8853 30.9629ZM23.8853 19.5925C26.3348 19.5925 28.3234 21.5844 28.3234 24.0306C28.3234 26.4767 26.3314 28.4686 23.8853 28.4686C21.4392 28.4686 19.4472 26.4767 19.4472 24.0306C19.4472 21.5844 21.4392 19.5925 23.8853 19.5925Z" fill="#1494CB"/>
<path id="Vector_4" d="M18.3848 9.96326H29.6211C34.2828 9.96326 38.074 13.7545 38.074 18.4162V29.6525C38.074 34.3142 34.2828 38.1055 29.6211 38.1055H18.3848C13.7231 38.1055 9.93176 34.3142 9.93176 29.6525V18.4162C9.93176 13.7545 13.7231 9.96326 18.3848 9.96326ZM29.6211 35.4564C32.8206 35.4564 35.4249 32.852 35.4249 29.6525V18.4162C35.4249 15.2167 32.8206 12.6123 29.6211 12.6123H18.3848C15.1852 12.6123 12.5809 15.2167 12.5809 18.4162V29.6525C12.5809 32.8555 15.1852 35.4564 18.3848 35.4564H29.6211Z" fill="#1494CB"/>
</g>
</g>
</svg>
